/* XPM */
static char * epg_abort_xpm[] = {
"24 24 12 1",
" 	c None",
".	c #870D0D",
"+	c #E1C2C2",
"@	c #860C0C",
"#	c #FEFDFD",
"$	c #CA9494",
"%	c #C28585",
"&	c #FEFCFC",
"*	c #FFFEFE",
"=	c #FDFBFB",
"-	c #FCF9F9",
";	c #9C3939",
"                        ",
"                        ",
"                        ",
"                        ",
"                        ",
"     ..          +@     ",
"     ..        #$@@     ",
"     ..       #%@@      ",
"     ..      &%@@       ",
"     ..   #* $@@        ",
"     @.   * +@@         ",
"     ......@@@.....     ",
"     .....@@.......     ",
"     .. #+@@ * *#       ",
"     ..=+@@ &****       ",
"     .@$@@  *           ",
"     .@@@***            ",
"     ..@-****           ",
"    $@@* *  *           ",
"    ;@                  ",
"                        ",
"                        ",
"                        ",
"                        "};
