/* XPM */
static char * epg_help_xpm[] = {
"24 24 221 2",
"  	c None",
". 	c #0E270E",
"+ 	c #0E280E",
"@ 	c #0D220C",
"# 	c #4A4F23",
"$ 	c #7E7E46",
"% 	c #4B5524",
"& 	c #143714",
"* 	c #0F2B10",
"= 	c #112F11",
"- 	c #1A491B",
"; 	c #224D1B",
"> 	c #889788",
", 	c #0C250D",
"' 	c #243114",
") 	c #62622C",
"! 	c #9B9A5C",
"~ 	c #65652D",
"{ 	c #2A4D1D",
"] 	c #113212",
"^ 	c #102E11",
"/ 	c #153B15",
"( 	c #225A23",
"_ 	c #233E13",
": 	c #1B3612",
"< 	c #133413",
"[ 	c #0F2C0F",
"} 	c #0C230D",
"| 	c #1F3014",
"1 	c #808045",
"2 	c #8D8D54",
"3 	c #737537",
"4 	c #244D1C",
"5 	c #1B4C1C",
"6 	c #143815",
"7 	c #113312",
"8 	c #1A461B",
"9 	c #276025",
"0 	c #1D461B",
"a 	c #163A16",
"b 	c #172E11",
"c 	c #142D10",
"d 	c #394621",
"e 	c #5F6533",
"f 	c #395024",
"g 	c #254619",
"h 	c #3D5E24",
"i 	c #32632A",
"j 	c #123312",
"k 	c #235E24",
"l 	c #253A12",
"m 	c #1F4D1F",
"n 	c #123212",
"o 	c #1A2710",
"p 	c #313C1E",
"q 	c #242817",
"r 	c #27261A",
"s 	c #2A281A",
"t 	c #32311C",
"u 	c #454422",
"v 	c #67692E",
"w 	c #5F712E",
"x 	c #2D4B20",
"y 	c #19471A",
"z 	c #224918",
"A 	c #1A4519",
"B 	c #172B16",
"C 	c #45423B",
"D 	c #161311",
"E 	c #121212",
"F 	c #1D1F1F",
"G 	c #292B2A",
"H 	c #2C302E",
"I 	c #2C2F2E",
"J 	c #373533",
"K 	c #6C6A4D",
"L 	c #6D7231",
"M 	c #20431A",
"N 	c #123412",
"O 	c #204B19",
"P 	c #1B3510",
"Q 	c #31382A",
"R 	c #0F0E0D",
"S 	c #20211B",
"T 	c #312820",
"U 	c #513A31",
"V 	c #433028",
"W 	c #513B32",
"X 	c #44342A",
"Y 	c #34332B",
"Z 	c #2F342F",
"` 	c #423F2F",
" .	c #3F5722",
"..	c #103011",
"+.	c #1F3711",
"@.	c #13170C",
"#.	c #343024",
"$.	c #704F40",
"%.	c #5E4336",
"&.	c #A97C67",
"*.	c #8B6354",
"=.	c #CF967C",
"-.	c #C18C71",
";.	c #BD8870",
">.	c #8E6957",
",.	c #1D1F16",
"'.	c #1E3216",
").	c #122F10",
"!.	c #695741",
"~.	c #2C2118",
"{.	c #372820",
"].	c #695247",
"^.	c #916C61",
"/.	c #564238",
"(.	c #443428",
"_.	c #4A392A",
":.	c #BD9178",
"<.	c #CDA386",
"[.	c #193916",
"}.	c #393022",
"|.	c #1A150D",
"1.	c #211C16",
"2.	c #3C332A",
"3.	c #543E36",
"4.	c #252119",
"5.	c #1E1910",
"6.	c #2E2416",
"7.	c #9F8873",
"8.	c #FACBAB",
"9.	c #866C50",
"0.	c #726050",
"a.	c #231C13",
"b.	c #27231D",
"c.	c #5B463D",
"d.	c #B8836E",
"e.	c #342E27",
"f.	c #221C11",
"g.	c #322718",
"h.	c #B09C85",
"i.	c #F3C5A6",
"j.	c #F4BB9F",
"k.	c #826758",
"l.	c #2E271E",
"m.	c #43352E",
"n.	c #855F50",
"o.	c #EDB59A",
"p.	c #795E51",
"q.	c #3E3228",
"r.	c #433628",
"s.	c #B99785",
"t.	c #DEB49D",
"u.	c #BF8775",
"v.	c #9A705E",
"w.	c #4D3832",
"x.	c #5E443C",
"y.	c #7A574B",
"z.	c #BC8B77",
"A.	c #C3937D",
"B.	c #8D6455",
"C.	c #D5907D",
"D.	c #C29D90",
"E.	c #C8A492",
"F.	c #98765F",
"G.	c #99705C",
"H.	c #574039",
"I.	c #694B40",
"J.	c #5D3E35",
"K.	c #66463B",
"L.	c #966555",
"M.	c #79584A",
"N.	c #C48C78",
"O.	c #B0958B",
"P.	c #AC9284",
"Q.	c #A87A63",
"R.	c #4C372F",
"S.	c #65352F",
"T.	c #592A27",
"U.	c #291616",
"V.	c #442916",
"W.	c #482F1B",
"X.	c #40291A",
"Y.	c #805850",
"Z.	c #87746B",
"`.	c #BE836D",
" +	c #5A4036",
".+	c #825C4D",
"++	c #5D4037",
"@+	c #79564C",
"#+	c #9A6254",
"$+	c #835C47",
"%+	c #664431",
"&+	c #8F473C",
"*+	c #946C5F",
"=+	c #D28C78",
"-+	c #895D4F",
";+	c #624539",
">+	c #533C34",
",+	c #876256",
"'+	c #C7917F",
")+	c #E1A591",
"!+	c #FDCDAD",
"~+	c #F6C4A7",
"{+	c #C29C80",
"]+	c #8F6353",
"^+	c #AA7362",
"/+	c #60453B",
"(+	c #75554A",
"_+	c #8F685D",
":+	c #EBAF97",
"<+	c #FACAB0",
"[+	c #FED4B2",
"}+	c #F1BC9E",
"|+	c #8E7663",
"1+	c #654D46",
"2+	c #715247",
"3+	c #9C7265",
"4+	c #BA8878",
"5+	c #F3BBA2",
"6+	c #DAAD96",
"7+	c #8E6A5D",
"8+	c #544948",
"                                                ",
"                                                ",
"              . + @ # $ % & * = - ;             ",
"            > + , ' ) ! ~ { ] ^ / ( _           ",
"          : < [ } | 1 2 3 4 5 6 7 8 9           ",
"          0 a + b c d e f g h i j 7 k l         ",
"          m n o p q r s t u v w x ] y z         ",
"          A B C D E F G H I J K L M N O         ",
"          P Q R S T U V W X Y Z `  ...+.        ",
"            @.#.$.%.&.*.=.-.;.>.,.'.).          ",
"              !.~.{.].^./.(._.:.<.[.            ",
"              }.|.1.2.3.4.5.6.7.8.9.            ",
"              0.a.b.c.d.e.f.g.h.i.j.            ",
"              k.l.m.n.o.p.q.r.s.t.u.            ",
"              v.w.x.y.z.A.B.C.D.E.F.            ",
"              G.H.I.J.K.L.M.N.O.P.              ",
"              Q.R.S.T.U.V.W.X.Y.Z.              ",
"              `. +.+++@+#+$+%+&+*+              ",
"              =+-+;+>+,+'+)+!+~+{+              ",
"              ]+^+/+(+_+:+<+[+}+|+              ",
"                1+2+3+4+5+6+7+8+                ",
"                                                ",
"                                                ",
"                                                "};
