/* XPM */
static char * epg_find_xpm[] = {
"24 24 158 2",
"  	c None",
". 	c #D1D3D4",
"+ 	c #E6E7E8",
"@ 	c #B9BEC0",
"# 	c #FCFDFE",
"$ 	c #C3CBCF",
"% 	c #6B818C",
"& 	c #4B778D",
"* 	c #99BFD1",
"= 	c #76A5BA",
"- 	c #8FC9E3",
"; 	c #ABCBDA",
"> 	c #E4E4E4",
", 	c #DDEEF6",
"' 	c #95C6DD",
") 	c #92C7DA",
"! 	c #93CEE6",
"~ 	c #BEE7F3",
"{ 	c #AEDFEF",
"] 	c #BAE7F3",
"^ 	c #A5C7D0",
"/ 	c #97ABB5",
"( 	c #A3A3A3",
"_ 	c #BAD9E6",
": 	c #B3E0EF",
"< 	c #B5E5F2",
"[ 	c #C3EDF6",
"} 	c #CAF1F8",
"| 	c #C9F1F8",
"1 	c #CFF4F9",
"2 	c #E0FCFE",
"3 	c #C2E5F0",
"4 	c #F2F8F9",
"5 	c #FCFCFC",
"6 	c #D2D2D2",
"7 	c #53595C",
"8 	c #A3D6E9",
"9 	c #B9E8F4",
"0 	c #CFF3FA",
"a 	c #E1FDFE",
"b 	c #E4FDFE",
"c 	c #EAFEFE",
"d 	c #EFFEFE",
"e 	c #E7FFFF",
"f 	c #D9F2F2",
"g 	c #9EA9A9",
"h 	c #CCCCCC",
"i 	c #FDFDFD",
"j 	c #898989",
"k 	c #8F9E9E",
"l 	c #C8F0F8",
"m 	c #D3F6FA",
"n 	c #ECFFFF",
"o 	c #F9FFFF",
"p 	c #FEFFFF",
"q 	c #EBFFFF",
"r 	c #E4FEFE",
"s 	c #DBF1F4",
"t 	c #EEF4F7",
"u 	c #FBFBFB",
"v 	c #99A2A5",
"w 	c #B7D4DB",
"x 	c #D5F7FB",
"y 	c #E3FEFE",
"z 	c #E6FFFF",
"A 	c #F6FFFF",
"B 	c #F7FFFF",
"C 	c #D7F0F1",
"D 	c #95ABB1",
"E 	c #CED7DC",
"F 	c #A6B0B5",
"G 	c #A6C5CD",
"H 	c #E5FFFF",
"I 	c #F1FFFF",
"J 	c #FBFFFF",
"K 	c #EDFFFF",
"L 	c #C3D9D9",
"M 	c #444A4B",
"N 	c #B1B2B2",
"O 	c #F9F9F9",
"P 	c #DFDFDF",
"Q 	c #B0B0B1",
"R 	c #CACECF",
"S 	c #CBD3D6",
"T 	c #C0DDE0",
"U 	c #DAF3F3",
"V 	c #E8FFFF",
"W 	c #E0FBFC",
"X 	c #ACCDD6",
"Y 	c #41555E",
"Z 	c #AEAEAE",
"` 	c #EBEBEB",
" .	c #909090",
"..	c #3F3F3F",
"+.	c #363C3F",
"@.	c #93B2C1",
"#.	c #C9E5F2",
"$.	c #BACACF",
"%.	c #7D9297",
"&.	c #D4F1F4",
"*.	c #E3FDFD",
"=.	c #E1FBFB",
"-.	c #CFE7E7",
";.	c #B2C8C9",
">.	c #99BECB",
",.	c #A7C0C8",
"'.	c #5C6468",
").	c #7E7E7E",
"!.	c #444444",
"~.	c #1D1D1D",
"{.	c #222222",
"].	c #292F31",
"^.	c #697981",
"/.	c #D9DCDD",
"(.	c #ABC3CF",
"_.	c #92B6C4",
":.	c #9FC4CF",
"<.	c #C5E4EA",
"[.	c #899B9C",
"}.	c #718A91",
"|.	c #4D6A77",
"1.	c #5D8599",
"2.	c #B9C8CD",
"3.	c #A7A7A7",
"4.	c #FAFAFA",
"5.	c #D6D6D6",
"6.	c #979797",
"7.	c #2D2D2D",
"8.	c #161616",
"9.	c #353535",
"0.	c #282828",
"a.	c #575757",
"b.	c #D4D4D4",
"c.	c #E8ECEE",
"d.	c #747E83",
"e.	c #394E58",
"f.	c #82A4B3",
"g.	c #4A6876",
"h.	c #4F6E7D",
"i.	c #486775",
"j.	c #5A6970",
"k.	c #6A6A6A",
"l.	c #474747",
"m.	c #3C3C3C",
"n.	c #424242",
"o.	c #464646",
"p.	c #4F4F4F",
"q.	c #D6D7D7",
"r.	c #EFF1F2",
"s.	c #D1D6D9",
"t.	c #CDCFD0",
"u.	c #DBDDDE",
"v.	c #7C7C7C",
"w.	c #494949",
"x.	c #676767",
"y.	c #C9C9C9",
"z.	c #C3C3C3",
"A.	c #E9E9E9",
"                                                ",
"                                                ",
"                                                ",
"                                                ",
"                              . + @             ",
"                        # $ % & * = - ; >       ",
"                        , ' ) ! ~ { ] ^ /       ",
"                      ( _ : < [ } | 1 2 3 4 5   ",
"                    6 7 8 9 0 a b c d e f g h   ",
"                  i j k l m a n o   p q r s t   ",
"                  u v w x y z A     B e C D E   ",
"                    F G H H H I J o K H L M N   ",
"            O P Q R S T U H H z e V H W X Y Z   ",
"        ` 6  ...+.@.#.$.%.&.*.H =.-.;.>.,.'.    ",
"        ).!.~.{.].^./.  (._.:.<.[.}.|.1.2.3.4.  ",
"    5.6.7.8.7.9.0.a.b.  c.d.e.f.g.h.i.j.  O     ",
"> k.l.m.n.o.n.p.            q.r.s.t.u.  5       ",
"  v.w.x.3.y.z.A.                                ",
"                                                ",
"                                                ",
"                                                ",
"                                                ",
"                                                ",
"                                                "};
