/* XPM */
static char * epg_restart_xpm[] = {
"24 24 4 1",
" 	c None",
".	c #C58989",
"+	c #870D0D",
"@	c #D5AAAA",
"                        ",
"                        ",
"                        ",
"                        ",
"          .+++.         ",
"        .+++++++        ",
"       .+++++++++       ",
"       +++.    .+       ",
"      +++.      +       ",
"    +++++++    +++      ",
"    @++++++   +++++     ",
"     +++++   ++++++@    ",
"      +++    +++++++    ",
"       +      .+++      ",
"       +.    .+++       ",
"       +++++++++.       ",
"        +++++++.        ",
"         .+++.          ",
"                        ",
"                        ",
"                        ",
"                        ",
"                        ",
"                        "};
