/* XPM */
static char * epg_context_xpm[] = {
"24 24 124 2",
"  	c None",
". 	c #DADADA",
"+ 	c #C1C1C1",
"@ 	c #C8C8C8",
"# 	c #EEEEEE",
"$ 	c #F2F2F2",
"% 	c #979797",
"& 	c #848484",
"* 	c #808080",
"= 	c #949494",
"- 	c #DCDCDC",
"; 	c #B1B1B1",
"> 	c #8B8B8B",
", 	c #EDEDED",
"' 	c #8E8E8E",
") 	c #6E6E6E",
"! 	c #505050",
"~ 	c #0A0A0A",
"{ 	c #1B1B1B",
"] 	c #C0C0C0",
"^ 	c #ECECEC",
"/ 	c #A5A5A5",
"( 	c #616161",
"_ 	c #2F2F2F",
": 	c #090909",
"< 	c #5E5E5E",
"[ 	c #C4C4C4",
"} 	c #BCBCBC",
"| 	c #181818",
"1 	c #7E7E7E",
"2 	c #8D8D8D",
"3 	c #888888",
"4 	c #767676",
"5 	c #010101",
"6 	c #4C4C4C",
"7 	c #525252",
"8 	c #030303",
"9 	c #464646",
"0 	c #818181",
"a 	c #919191",
"b 	c #474747",
"c 	c #070707",
"d 	c #A4A4A4",
"e 	c #121212",
"f 	c #6F6F6F",
"g 	c #D3D3D3",
"h 	c #FBFBFB",
"i 	c #FDFDFD",
"j 	c #E1E1E1",
"k 	c #3D3D3D",
"l 	c #0D0D0D",
"m 	c #050505",
"n 	c #BABABA",
"o 	c #E6E6E6",
"p 	c #CECECE",
"q 	c #B8B8B8",
"r 	c #0B0B0B",
"s 	c #565656",
"t 	c #222222",
"u 	c #B9B9B9",
"v 	c #FCFCFC",
"w 	c #FEFEFE",
"x 	c #EBEBEB",
"y 	c #3A3A3A",
"z 	c #999999",
"A 	c #9B9B9B",
"B 	c #000000",
"C 	c #494949",
"D 	c #B2B2B2",
"E 	c #131313",
"F 	c #2D2D2D",
"G 	c #C5C5C5",
"H 	c #4A4A4A",
"I 	c #303030",
"J 	c #393939",
"K 	c #E4E4E4",
"L 	c #171717",
"M 	c #797979",
"N 	c #939393",
"O 	c #C7C7C7",
"P 	c #404040",
"Q 	c #BDBDBD",
"R 	c #868686",
"S 	c #F4F4F4",
"T 	c #9F9F9F",
"U 	c #F6F6F6",
"V 	c #AFAFAF",
"W 	c #FAFAFA",
"X 	c #3C3C3C",
"Y 	c #F7F7F7",
"Z 	c #F3F3F3",
"` 	c #959595",
" .	c #EFEFEF",
"..	c #636363",
"+.	c #333333",
"@.	c #E3E3E3",
"#.	c #D5D5D5",
"$.	c #7A7A7A",
"%.	c #F8F8F8",
"&.	c #7B7B7B",
"*.	c #101010",
"=.	c #7C7C7C",
"-.	c #F0F0F0",
";.	c #E8E8E8",
">.	c #444444",
",.	c #B0B0B0",
"'.	c #989898",
").	c #252525",
"!.	c #555555",
"~.	c #E2E2E2",
"{.	c #CBCBCB",
"].	c #373737",
"^.	c #1D1D1D",
"/.	c #545454",
"(.	c #353535",
"_.	c #8F8F8F",
":.	c #D9D9D9",
"<.	c #A8A8A8",
"[.	c #656565",
"}.	c #CFCFCF",
"|.	c #2C2C2C",
"1.	c #B7B7B7",
"2.	c #BBBBBB",
"3.	c #D7D7D7",
"                                                ",
"                                                ",
"                                                ",
"                                                ",
"        . + + @             # + + + $           ",
"      % & * * * = -       ; > * * * =           ",
"  , ' * ) ! ~ ~ ~ { ] ^ / * ( _ : : ~ < [       ",
"  } * ) | | 1 2 3 4 5 6 * 7 8 9 0 a 0 b c d     ",
"  * * e f g h i j [ [ k l m n o h h p [ q r q   ",
"  * s t u v w x y c z A B C x     D E F G H 7   ",
"  * I J $ w w K L 8 M x B 2 i     N c e O 2 B   ",
"  * I P w w w v Q R S   B T       U = V W T 5   ",
"  0 I P w w w w w w w   B T           w w T B   ",
"  } I X Y w w w w w w Z B ` i         w i ` 5   ",
"   ...+.@.w w w w w i #.B $.%.        w %.&.E   ",
"      *.=.-.w w w w ;.>.B B g %.      %.g 5 ,.  ",
"      '.).!.#.;.~.{.].^.] /.(._.:.^ :._.(./.^   ",
"        <.7 5 5 5 c [.}.    ) |.B B B |.)       ",
"          $ 1.1.1.2.          3.1.1.1.3.        ",
"                                                ",
"                                                ",
"                                                ",
"                                                ",
"                                                "};
