/* XPM */
static char * epg_retract_xpm[] = {
"24 24 4 1",
" 	c None",
".	c #870D0D",
"+	c #860C0C",
"@	c #CB9797",
"                        ",
"                        ",
"                        ",
"                        ",
"                        ",
"      .......+.....     ",
"      .............     ",
"           @.@          ",
"           ...          ",
"          @...@         ",
"          .....         ",
"         @.....@        ",
"         .......        ",
"        @.......@       ",
"        .........       ",
"       @.........@      ",
"       ...........      ",
"      .............     ",
"                        ",
"                        ",
"                        ",
"                        ",
"                        ",
"                        "};
