/* XPM */
static char * epg_use_xpm[] = {
"24 24 4 1",
" 	c None",
".	c #870D0D",
"+	c #CB9797",
"@	c #860C0C",
"                        ",
"                        ",
"                        ",
"                        ",
"                        ",
"      .............     ",
"       ...........      ",
"       +.........+      ",
"        .........       ",
"        +.......+       ",
"         .......        ",
"         +.....+        ",
"          .....         ",
"          +...+         ",
"           ...          ",
"           +.+          ",
"      .............     ",
"      .......@.....     ",
"                        ",
"                        ",
"                        ",
"                        ",
"                        ",
"                        "};
