/* XPM */
static char * epg_prooftree_xpm[] = {
"24 24 3 1",
" 	c None",
".	c #A52A2A",
"+	c #0000FF",
"                        ",
"                        ",
"          .             ",
"          .             ",
"          .             ",
"          .....         ",
"          .             ",
"          .             ",
"          .             ",
"                        ",
"          ++ ..         ",
"          +   ..        ",
"         +     ..       ",
"        +       ..      ",
"       +         ..     ",
"  +              .      ",
"  +              .      ",
"  +              .      ",
"  +++++          .....  ",
"  +              .      ",
"  +              .      ",
"  +              .      ",
"                        ",
"                        "};
