/* XPM */
static char * epg_qed_xpm[] = {
"24 24 328 2",
"  	c None",
". 	c #321D18",
"+ 	c #36201A",
"@ 	c #422922",
"# 	c #432B24",
"$ 	c #38251F",
"% 	c #1F2219",
"& 	c #8D8F8A",
"* 	c #3E231D",
"= 	c #502E25",
"- 	c #663F33",
"; 	c #653F34",
"> 	c #462A21",
", 	c #3E2821",
"' 	c #37251F",
") 	c #30231E",
"! 	c #2D221F",
"~ 	c #29211D",
"{ 	c #212219",
"] 	c #2B3223",
"^ 	c #394932",
"/ 	c #2B3826",
"( 	c #412723",
"_ 	c #3D2420",
": 	c #462923",
"< 	c #502C22",
"[ 	c #784333",
"} 	c #B36A50",
"| 	c #A15E47",
"1 	c #6D4030",
"2 	c #57372D",
"3 	c #442F27",
"4 	c #3A2B25",
"5 	c #352A25",
"6 	c #2F2622",
"7 	c #2A241F",
"8 	c #2A241E",
"9 	c #24211A",
"0 	c #22211A",
"a 	c #25281D",
"b 	c #394831",
"c 	c #A4C096",
"d 	c #6D8D64",
"e 	c #945D53",
"f 	c #512F2B",
"g 	c #452823",
"h 	c #4B2A23",
"i 	c #693A2D",
"j 	c #B86547",
"k 	c #FDD0A5",
"l 	c #F2B385",
"m 	c #AD6248",
"n 	c #6A4334",
"o 	c #50382F",
"p 	c #473731",
"q 	c #4B3F39",
"r 	c #413833",
"s 	c #3F3731",
"t 	c #363029",
"u 	c #302C24",
"v 	c #2C2B22",
"w 	c #303225",
"x 	c #49573C",
"y 	c #9FB990",
"z 	c #7C9B71",
"A 	c #BC8175",
"B 	c #5D3934",
"C 	c #50302B",
"D 	c #56312A",
"E 	c #7A4536",
"F 	c #DB8059",
"G 	c #FEFBED",
"H 	c #FEE8CA",
"I 	c #D27D5B",
"J 	c #835544",
"K 	c #6A4F44",
"L 	c #685852",
"M 	c #7A7472",
"N 	c #635C57",
"O 	c #474039",
"P 	c #3A332C",
"Q 	c #322D26",
"R 	c #2E2C23",
"S 	c #414635",
"T 	c #59654C",
"U 	c #546349",
"V 	c #3F4934",
"W 	c #7F534D",
"X 	c #613E39",
"Y 	c #50312D",
"Z 	c #56332D",
"` 	c #7A493D",
" .	c #CD7E60",
"..	c #F2AE81",
"+.	c #E79064",
"@.	c #9A5942",
"#.	c #6D4639",
"$.	c #634A41",
"%.	c #867E7A",
"&.	c #F0E4CB",
"*.	c #7E7D78",
"=.	c #4C453D",
"-.	c #3E3730",
";.	c #38322A",
">.	c #4D5140",
",.	c #555C48",
"'.	c #333326",
").	c #38392A",
"!.	c #36372A",
"~.	c #533635",
"{.	c #6A4642",
"].	c #5C3B38",
"^.	c #623F3B",
"/.	c #784D44",
"(.	c #8C5547",
"_.	c #945643",
":.	c #9D5E47",
"<.	c #764A3A",
"[.	c #604035",
"}.	c #594239",
"|.	c #655751",
"1.	c #8B8680",
"2.	c #645E57",
"3.	c #4E453C",
"4.	c #413A30",
"5.	c #555845",
"6.	c #4E503F",
"7.	c #342F26",
"8.	c #353025",
"9.	c #3E392C",
"0.	c #3F392E",
"a.	c #3F292C",
"b.	c #503536",
"c.	c #6A4845",
"d.	c #6B4946",
"e.	c #67433E",
"f.	c #6D463E",
"g.	c #7B4D41",
"h.	c #915C47",
"i.	c #5D3B32",
"j.	c #573C34",
"k.	c #533D35",
"l.	c #56453D",
"m.	c #5C4F46",
"n.	c #4C4138",
"o.	c #4B4136",
"p.	c #5A5846",
"q.	c #51513F",
"r.	c #342D23",
"s.	c #342E24",
"t.	c #40382B",
"u.	c #534638",
"v.	c #665544",
"w.	c #402B30",
"x.	c #472F33",
"y.	c #654748",
"z.	c #5F4040",
"A.	c #614140",
"B.	c #62403E",
"C.	c #6C453F",
"D.	c #825344",
"E.	c #583931",
"F.	c #523A33",
"G.	c #533E36",
"H.	c #544238",
"I.	c #544539",
"J.	c #504637",
"K.	c #595342",
"L.	c #575340",
"M.	c #3D3427",
"N.	c #3B3227",
"O.	c #3F3529",
"P.	c #483C2F",
"Q.	c #886F5B",
"R.	c #E1CFB9",
"S.	c #483139",
"T.	c #50393F",
"U.	c #523A3F",
"V.	c #5A3E41",
"W.	c #614144",
"X.	c #5F3D3F",
"Y.	c #674341",
"Z.	c #8A5847",
"`.	c #774F41",
" +	c #503A34",
".+	c #513C35",
"++	c #544237",
"@+	c #594B3B",
"#+	c #5E533F",
"$+	c #686047",
"%+	c #514430",
"&+	c #423727",
"*+	c #403627",
"=+	c #3B3125",
"-+	c #473B2D",
";+	c #7B6452",
">+	c #C6AC95",
",+	c #573F4A",
"'+	c #5D444E",
")+	c #573E46",
"!+	c #5B3E44",
"~+	c #67434A",
"{+	c #905C67",
"]+	c #8D5C64",
"^+	c #87594F",
"/+	c #724C41",
"(+	c #4A3531",
"_+	c #4C3931",
":+	c #544236",
"<+	c #696048",
"[+	c #796D4E",
"}+	c #958154",
"|+	c #77653F",
"1+	c #5C4E34",
"2+	c #463B2A",
"3+	c #473C2D",
"4+	c #4F4335",
"5+	c #56483A",
"6+	c #635244",
"7+	c #795C6E",
"8+	c #634956",
"9+	c #583E48",
"0+	c #5F4249",
"a+	c #845963",
"b+	c #ECBCC1",
"c+	c #DAA5AC",
"d+	c #7B504F",
"e+	c #734C41",
"f+	c #48332E",
"g+	c #43322B",
"h+	c #544839",
"i+	c #6B6247",
"j+	c #A28C59",
"k+	c #F8EBCB",
"l+	c #E9DAAC",
"m+	c #99885E",
"n+	c #665940",
"o+	c #493F2F",
"p+	c #372E23",
"q+	c #342B22",
"r+	c #312720",
"s+	c #9B7693",
"t+	c #624758",
"u+	c #543B47",
"v+	c #553B44",
"w+	c #67454E",
"x+	c #895665",
"y+	c #90606C",
"z+	c #5F3E3F",
"A+	c #744C3F",
"B+	c #4B352E",
"C+	c #45372F",
"D+	c #5B5341",
"E+	c #66553E",
"F+	c #AB9561",
"G+	c #FDF1DB",
"H+	c #F8EAC7",
"I+	c #938155",
"J+	c #4D412D",
"K+	c #362D20",
"L+	c #B48BAC",
"M+	c #705567",
"N+	c #59424E",
"O+	c #4E3841",
"P+	c #4C353D",
"Q+	c #4D333A",
"R+	c #563C40",
"S+	c #4C3536",
"T+	c #7B5140",
"U+	c #4A362F",
"V+	c #504B3E",
"W+	c #473B2F",
"X+	c #514231",
"Y+	c #A28D5B",
"Z+	c #9C895B",
"`+	c #615338",
" @	c #4A402E",
".@	c #332B1F",
"+@	c #806279",
"@@	c #5D4655",
"#@	c #493540",
"$@	c #402E36",
"%@	c #3E2B32",
"&@	c #3D2A30",
"*@	c #433034",
"=@	c #453232",
"-@	c #764E3E",
";@	c #51453A",
">@	c #443B32",
",@	c #3D332A",
"'@	c #43382C",
")@	c #5C4F3A",
"!@	c #534632",
"~@	c #3F3526",
"{@	c #2E271C",
"]@	c #3C2C36",
"^@	c #37272F",
"/@	c #302228",
"(@	c #2D1F24",
"_@	c #322427",
":@	c #3E2F2E",
"<@	c #825A47",
"[@	c #615443",
"}@	c #594638",
"|@	c #423B30",
"1@	c #F5E8C5",
"2@	c #4A4034",
"3@	c #332A20",
"4@	c #2F271D",
"5@	c #352C22",
"6@	c #3C2D38",
"7@	c #2C1F26",
"8@	c #291E23",
"9@	c #281D22",
"0@	c #291D20",
"a@	c #332B29",
"b@	c #7D6A52",
"c@	c #645442",
"d@	c #755540",
"e@	c #F3D9B5",
"f@	c #322B23",
"g@	c #918C8F",
"h@	c #261E1F",
"i@	c #573C30",
"j@	c #50372C",
"k@	c #3D2921",
"l@	c #33221C",
"m@	c #28201D",
"                                                ",
"                                                ",
"                                                ",
"          . + @ # $                     % &     ",
"          * = - ; > , ' ) ! ~         { ] ^ /   ",
"    ( _ : < [ } | 1 2 3 4 5 6 7 8 9 0 a b c d   ",
"  e f g h i j k l m n o p q r s t u v w x y z   ",
"  A B C D E F G H I J K L M N O P Q R S T U V   ",
"  W X Y Z `  ...+.@.#.$.%.&.*.=.-.;.>.,.'.).!.  ",
"  ~.{.].^./.(._.:.<.[.}.|.1.2.3.4.5.6.7.8.9.0.  ",
"  a.b.c.d.e.f.g.h.i.j.k.l.m.n.o.p.q.r.s.t.u.v.  ",
"  w.x.y.z.A.B.C.D.E.F.G.H.I.J.K.L.M.N.O.P.Q.R.  ",
"  S.T.U.V.W.X.Y.Z.`. +.+++@+#+$+%+&+*+=+-+;+>+  ",
"  ,+'+)+!+~+{+]+^+/+(+_+:+<+[+}+|+1+2+3+4+5+6+  ",
"  7+8+9+0+a+b+c+d+e+f+g+h+i+j+k+l+m+n+o+p+q+r+  ",
"  s+t+u+v+w+x+y+z+A+B+C+D+E+F+G+H+I+J+K+        ",
"  L+M+N+O+P+Q+R+S+T+U+V+W+X+H+Y+Z+`+ @.@        ",
"  +@@@#@$@%@&@*@=@-@;@>@,@'@H+)@!@~@{@          ",
"  +@+@]@^@/@(@_@:@<@[@}@|@1@2@3@4@5@            ",
"  6@+@+@7@8@9@0@a@b@c@d@e@H+f@                  ",
"      +@g@      h@i@j@k@l@m@                    ",
"                                                ",
"                                                ",
"                                                "};
