/* XPM */
static char * epg_next_xpm[] = {
"24 24 4 1",
" 	c None",
".	c #870D0D",
"+	c #CE9C9C",
"@	c #E8D1D1",
"                        ",
"                        ",
"                        ",
"                        ",
"                        ",
"      .+@               ",
"      ....+             ",
"      ......+           ",
"      ........+         ",
"      ..........+       ",
"      ............+     ",
"      ..............    ",
"      ............+     ",
"      ..........+       ",
"      ........+         ",
"      ......+           ",
"      ....+             ",
"      .+@               ",
"                        ",
"                        ",
"                        ",
"                        ",
"                        ",
"                        "};
