/* XPM */
static char * epg_goal_xpm[] = {
"24 24 258 2",
"  	c None",
". 	c #ABE3A3",
"+ 	c #ABE49E",
"@ 	c #A5E097",
"# 	c #99D08C",
"$ 	c #9CC475",
"% 	c #92B863",
"& 	c #8ABD65",
"* 	c #7DBF67",
"= 	c #87D470",
"- 	c #89D873",
"; 	c #87DA74",
"> 	c #7DD667",
", 	c #7FD664",
"' 	c #78D65D",
") 	c #76D85D",
"! 	c #70D957",
"~ 	c #74D857",
"{ 	c #6CD152",
"] 	c #67CC4E",
"^ 	c #6AD951",
"/ 	c #69CD52",
"( 	c #6CCD4B",
"_ 	c #6CDB50",
": 	c #71DC53",
"< 	c #BAE9AB",
"[ 	c #AEDA9E",
"} 	c #9FB674",
"| 	c #5F541F",
"1 	c #656D33",
"2 	c #40522F",
"3 	c #4D7542",
"4 	c #5F9152",
"5 	c #659E58",
"6 	c #558745",
"7 	c #65A353",
"8 	c #5D9A4A",
"9 	c #4F8C41",
"0 	c #569B48",
"a 	c #4E943E",
"b 	c #3D752D",
"c 	c #3F722A",
"d 	c #559734",
"e 	c #5E9835",
"f 	c #579A36",
"g 	c #60BF49",
"h 	c #6FDB56",
"i 	c #BFE2B1",
"j 	c #909A68",
"k 	c #A4A460",
"l 	c #859458",
"m 	c #6A692D",
"n 	c #5C5A22",
"o 	c #5E5C24",
"p 	c #5A5720",
"q 	c #565C22",
"r 	c #3E4016",
"s 	c #3C4318",
"t 	c #3F4516",
"u 	c #3E6726",
"v 	c #447F32",
"w 	c #478D36",
"x 	c #69D44E",
"y 	c #C0D7B8",
"z 	c #90986C",
"A 	c #A3C098",
"B 	c #000000",
"C 	c #84A178",
"D 	c #95B785",
"E 	c #7D9A6E",
"F 	c #7CA469",
"G 	c #89BB79",
"H 	c #88B670",
"I 	c #95CA75",
"J 	c #78A958",
"K 	c #74AA59",
"L 	c #6FB859",
"M 	c #7AAE49",
"N 	c #305827",
"O 	c #305E25",
"P 	c #63C84C",
"Q 	c #C5D3BC",
"R 	c #ABAF87",
"S 	c #9EB499",
"T 	c #8BA481",
"U 	c #60785A",
"V 	c #92BB85",
"W 	c #769A69",
"X 	c #7BA86A",
"Y 	c #669859",
"Z 	c #56824A",
"` 	c #80C068",
" .	c #67B351",
"..	c #CFD4C4",
"+.	c #B6B992",
"@.	c #A1B49A",
"#.	c #8C9C85",
"$.	c #7C8D77",
"%.	c #A9CBA0",
"&.	c #89A781",
"*.	c #86A57A",
"=.	c #86B47A",
"-.	c #79A86D",
";.	c #8FCA7D",
">.	c #5C8854",
",.	c #80C06F",
"'.	c #619A55",
").	c #5A954B",
"!.	c #D1D4CB",
"~.	c #C6C4A8",
"{.	c #C9D6C3",
"].	c #BAD4B6",
"^.	c #819D79",
"/.	c #91B586",
"(.	c #ADE0A3",
"_.	c #89B483",
":.	c #7CA96F",
"<.	c #8CC579",
"[.	c #557C4A",
"}.	c #44693A",
"|.	c #517F44",
"1.	c #CDC8C2",
"2.	c #DCD7C6",
"3.	c #ADB4A7",
"4.	c #98A294",
"5.	c #C2DDC1",
"6.	c #CEECC8",
"7.	c #CDEAC0",
"8.	c #A4CC98",
"9.	c #79A271",
"0.	c #517647",
"a.	c #D3CDC4",
"b.	c #D8D4CE",
"c.	c #DCDCD8",
"d.	c #B4B9B3",
"e.	c #CAD2CA",
"f.	c #DDEBD8",
"g.	c #DAEAD6",
"h.	c #D7EBD2",
"i.	c #D4E8CD",
"j.	c #CEE9C6",
"k.	c #CBE7C7",
"l.	c #CDEAC2",
"m.	c #C8E9B9",
"n.	c #C1E7B2",
"o.	c #BAE6B1",
"p.	c #B7E7AA",
"q.	c #B4E3A5",
"r.	c #4E6849",
"s.	c #5E8156",
"t.	c #99D78C",
"u.	c #D8CFC3",
"v.	c #E7E5E5",
"w.	c #DBDFDB",
"x.	c #EAEEE9",
"y.	c #E7ECE3",
"z.	c #E0EBDF",
"A.	c #DCECDA",
"B.	c #D8EADA",
"C.	c #D8E9D4",
"D.	c #D6E8CF",
"E.	c #D6EBCD",
"F.	c #CBEBC2",
"G.	c #CEE6C1",
"H.	c #C4E7BB",
"I.	c #C3E8B8",
"J.	c #BEE7B1",
"K.	c #83AE77",
"L.	c #ACE79E",
"M.	c #D0C8BC",
"N.	c #C3C3C3",
"O.	c #909091",
"P.	c #CDC9CC",
"Q.	c #E9E6E7",
"R.	c #EDECEE",
"S.	c #ECEDE9",
"T.	c #EBF0EA",
"U.	c #E9EDE6",
"V.	c #E6ECE7",
"W.	c #E1EBE2",
"X.	c #E3EBE1",
"Y.	c #DEECDA",
"Z.	c #DBEBD6",
"`.	c #D5E9D0",
" +	c #D3EACF",
".+	c #D0E9CA",
"++	c #CCE8C6",
"@+	c #C7E8BF",
"#+	c #8C7B3D",
"$+	c #A2C097",
"%+	c #B2DBA9",
"&+	c #B4E8AD",
"*+	c #CFCBC0",
"=+	c #A3916C",
"-+	c #C1C1C3",
";+	c #E1E1E4",
">+	c #EEEBEB",
",+	c #ECECED",
"'+	c #EDEDEE",
")+	c #EDEDED",
"!+	c #EFF0EE",
"~+	c #EFEDEE",
"{+	c #EDEBED",
"]+	c #EAECE7",
"^+	c #E7EDE6",
"/+	c #E3ECE3",
"(+	c #E0E9E1",
"_+	c #DFECDB",
":+	c #DFEDD7",
"<+	c #D7ECCE",
"[+	c #D5EBCC",
"}+	c #AEA167",
"|+	c #BBCBA7",
"1+	c #C8E5BD",
"2+	c #C1E8B9",
"3+	c #E1DCD4",
"4+	c #CABDA4",
"5+	c #ECECEE",
"6+	c #EAECEC",
"7+	c #EEEEEF",
"8+	c #EEECED",
"9+	c #ECEDEE",
"0+	c #EDECEC",
"a+	c #EEEDEC",
"b+	c #ECEDEB",
"c+	c #ECEDEC",
"d+	c #E9EEE9",
"e+	c #E9EDE5",
"f+	c #E7EDE4",
"g+	c #E8EADF",
"h+	c #E1EAE0",
"i+	c #DEEEDA",
"j+	c #DBE9D5",
"k+	c #CDD6B1",
"l+	c #D1E0BE",
"m+	c #D1EAC7",
"n+	c #CDEAC6",
"o+	c #EDE8EA",
"p+	c #EAE6E3",
"q+	c #EFEFED",
"r+	c #EDEDEC",
"s+	c #EDEDEF",
"t+	c #EEEEED",
"u+	c #EBECEC",
"v+	c #ECECEB",
"w+	c #EEEEEC",
"x+	c #EEEDED",
"y+	c #EBEDEC",
"z+	c #EBEEEA",
"A+	c #EDECEA",
"B+	c #EBEBE8",
"C+	c #E9EAE5",
"D+	c #E5ECE3",
"E+	c #E4EBE3",
"F+	c #DEEBD8",
"G+	c #DBEAD8",
"H+	c #DAEBD4",
"I+	c #DFEED9",
"                                                ",
"                                                ",
"                                                ",
"                                                ",
"                                                ",
". + @ # $ % & * = - ; > , ' ) ! ~ { ] ^ / ( _ : ",
"< [ } | | | 1 2 3 4 5 6 7 8 9 0 a b c d e f g h ",
"i j | k l | | | m n o p | q r s t | | | u v w x ",
"y | z A B C D E B F G H B I B J K B L M | N O P ",
"Q | R S B B T B U B V W B X B B Y Z B ` | B B  .",
"..| +.B @.#.B $.%.B &.B *.B =.-.;.B >.,.| '.B ).",
"!.| ~.B {.B B B ].B B B ^./.(._.B :.B <.| [.}.|.",
"1.| 2.B B 3.4.B B 5.6.7.B B B B 8.B 9.B | B B 0.",
"a.| b.B c.d.B e.f.g.h.i.j.k.l.m.n.o.p.q.| r.s.t.",
"u.| v.B B B w.x.y.z.A.B.C.D.E.F.G.H.I.J.| B K.L.",
"M.| N.O.P.Q.R.S.T.U.V.W.X.Y.Z.`. +.+++@+#+$+%+&+",
"*+=+-+;+>+,+'+)+!+~+{+]+^+/+(+_+:+g.<+[+}+|+1+2+",
"3+4+5+,+6+5+7+8+9+0+a+b+c+d+e+f+g+h+i+j+k+l+m+n+",
"o+p+a+q+6+r+s+t+u+v+w+9+x+y+z+A+B+C+D+E+F+G+H+I+",
"                                                ",
"                                                ",
"                                                ",
"                                                ",
"                                                "};
