/* XPM */
static char * epg_interrupt_xpm[] = {
"24 24 21 1",
" 	c None",
".	c #FFC9C9",
"+	c #FF6868",
"@	c #FF2828",
"#	c #FF0000",
"$	c #FF0707",
"%	c #FFD1D1",
"&	c #FF4848",
"*	c #FF4F4F",
"=	c #FFC8C8",
"-	c #FF6C6C",
";	c #FF1717",
">	c #FF8888",
",	c #FFA6A6",
"'	c #FF3E3E",
")	c #FF5D5D",
"!	c #FFCACA",
"~	c #FF7777",
"{	c #FF6161",
"]	c #FF7C7C",
"^	c #FFCDCD",
"                        ",
"                        ",
"                        ",
"                        ",
"        .+@#$@+%        ",
"       +########+       ",
"      &##########*      ",
"     +############+     ",
"    =##############=    ",
"    -;;;;;;;;;;;;;;-    ",
"    >              >    ",
"                        ",
"    ,              ,    ",
"    '))))))))))))))'    ",
"    +##############+    ",
"    =##############!    ",
"     +############~     ",
"      &##########{      ",
"       +########]       ",
"        =+@#$@+^        ",
"                        ",
"                        ",
"                        ",
"                        "};
