/* XPM */
static char * epg_info_xpm[] = {
"24 24 106 2",
"  	c None",
". 	c #FBFBFC",
"+ 	c #F2F2F5",
"@ 	c #EEEEF3",
"# 	c #FCFCFD",
"$ 	c #D6D6E6",
"% 	c #AAAAD7",
"& 	c #7878C1",
"* 	c #6969BB",
"= 	c #F3F3F4",
"- 	c #B7B7D5",
"; 	c #4242BB",
"> 	c #1818B6",
", 	c #0606BB",
"' 	c #2323C6",
") 	c #4242CE",
"! 	c #2B2BC4",
"~ 	c #1818B7",
"{ 	c #4141BA",
"] 	c #8888CB",
"^ 	c #2A2ABA",
"/ 	c #0101BD",
"( 	c #6F6FDA",
"_ 	c #D3D3F3",
": 	c #7979DC",
"< 	c #0000BE",
"[ 	c #2929BA",
"} 	c #FEFEFE",
"| 	c #BCBCD6",
"1 	c #7D7DDD",
"2 	c #EEEEFA",
"3 	c #8888E0",
"4 	c #0101BE",
"5 	c #D6D6E5",
"6 	c #4141BB",
"7 	c #0202BD",
"8 	c #1717C3",
"9 	c #2B2BC8",
"0 	c #2A2AC7",
"a 	c #1818C3",
"b 	c #FCFCFC",
"c 	c #A9A9D7",
"d 	c #0808BF",
"e 	c #7171DA",
"f 	c #D8D8F4",
"g 	c #1717B6",
"h 	c #7878C2",
"i 	c #0707BB",
"j 	c #0505BE",
"k 	c #4343CF",
"l 	c #8181DE",
"m 	c #C1C1EF",
"n 	c #F8F8FD",
"o 	c #8E8EE2",
"p 	c #0606BC",
"q 	c #6666BC",
"r 	c #0909BF",
"s 	c #8686E0",
"t 	c #6666BB",
"u 	c #8282DF",
"v 	c #F0F0F4",
"w 	c #7171BF",
"x 	c #0404BC",
"y 	c #7171C0",
"z 	c #FAFAFB",
"A 	c #A2A2D3",
"B 	c #1515B7",
"C 	c #D0D0E4",
"D 	c #3939BA",
"E 	c #F8F8FA",
"F 	c #A2A2CE",
"G 	c #1B1BBB",
"H 	c #0303BE",
"I 	c #2727C8",
"J 	c #4B4BD1",
"K 	c #A7A7E8",
"L 	c #FAFAFD",
"M 	c #AFAFEA",
"N 	c #4040CE",
"O 	c #0F0FC2",
"P 	c #A2A2CF",
"Q 	c #EEEEF0",
"R 	c #6D6DC2",
"S 	c #1414BB",
"T 	c #E7E7F8",
"U 	c #EAEAF9",
"V 	c #EDEDFA",
"W 	c #EBEBF9",
"X 	c #C8C8F1",
"Y 	c #2F2FCA",
"Z 	c #1414BC",
"` 	c #EFEFF0",
" .	c #A2A2C9",
"..	c #2D2DBC",
"+.	c #3E3EC5",
"@.	c #5D5DD3",
"#.	c #5959D4",
"$.	c #5B5BCC",
"%.	c #3C3CC0",
"&.	c #C1C1DA",
"*.	c #8A8ACC",
"=.	c #5B5BBF",
"-.	c #4D4DBC",
";.	c #F8F8F9",
">.	c #E4E4EB",
",.	c #DEDEE7",
"                                                ",
"                                                ",
"                                                ",
"                  . + @ @ + .                   ",
"              # $ % & * * & % $ #               ",
"            = - ; > , ' ) ! ~ { - =             ",
"          = ] ^ / / / ( _ : < < [ ] =           ",
"        } | [ / / / / 1 2 3 < < 4 [ | }         ",
"        5 6 < / 7 8 9 9 0 a < < < < 6 5         ",
"      b c ~ < / d e f f _ : < < < < g c b       ",
"      + h i < / j k l m n o < < < < p h +       ",
"      @ q 4 < / / j r s n o < < < < < q @       ",
"      @ t / < / / / / u n o < < < < < q @       ",
"      v w x < / / / / u n o < < < < x y v       ",
"      z A B < / / / / u n o < < < < B A z       ",
"        C D < / / / / u n o < < < < D C         ",
"        E F G / H I J K L M N O < G P E         ",
"          Q R S r : T U V W X Y Z R Q           ",
"            `  ...+.@.#.#.@.$.%. .`             ",
"              . &.*.=.-.-.=.*.&..               ",
"                  ;.>.,.,.>.;.                  ",
"                                                ",
"                                                ",
"                                                "};
