/* XPM */
static char * epg_command_xpm[] = {
"24 24 198 2",
"  	c None",
". 	c #F0ECE9",
"+ 	c #D0C1B5",
"@ 	c #C39E81",
"# 	c #A37451",
"$ 	c #966B48",
"% 	c #A97C59",
"& 	c #BA8D69",
"* 	c #C09370",
"= 	c #BE9473",
"- 	c #BB9476",
"; 	c #BD9677",
"> 	c #BC9678",
", 	c #B99578",
"' 	c #C19F84",
") 	c #C9AA91",
"! 	c #D1B299",
"~ 	c #D1B59F",
"{ 	c #7C7C8E",
"] 	c #A5A5AD",
"^ 	c #E5E4E3",
"/ 	c #E7E3DF",
"( 	c #E7DBD1",
"_ 	c #CFB29B",
": 	c #C39169",
"< 	c #D69766",
"[ 	c #D99966",
"} 	c #D49563",
"| 	c #CA8E5E",
"1 	c #CD8F5F",
"2 	c #CB8C5D",
"3 	c #BF8658",
"4 	c #BF8659",
"5 	c #C48A5B",
"6 	c #C3885B",
"7 	c #BD8457",
"8 	c #C2885A",
"9 	c #C88D5D",
"0 	c #C58A5C",
"a 	c #8989A4",
"b 	c #ADADB2",
"c 	c #CEC7C0",
"d 	c #A37F63",
"e 	c #D19667",
"f 	c #D99865",
"g 	c #D69765",
"h 	c #CC9060",
"i 	c #8B6241",
"j 	c #573C27",
"k 	c #64442B",
"l 	c #533825",
"m 	c #4A3E37",
"n 	c #685547",
"o 	c #836753",
"p 	c #745E4E",
"q 	c #765F4F",
"r 	c #85859D",
"s 	c #AFAFB0",
"t 	c #D4C5B9",
"u 	c #B38058",
"v 	c #D39260",
"w 	c #C28657",
"x 	c #BC8154",
"y 	c #BA8154",
"z 	c #C38759",
"A 	c #CC8E5D",
"B 	c #D59462",
"C 	c #C58A5B",
"D 	c #C18859",
"E 	c #B47F54",
"F 	c #876B55",
"G 	c #CDCDCD",
"H 	c #DBDBDB",
"I 	c #EAEAEA",
"J 	c #78788D",
"K 	c #B5B5B5",
"L 	c #C0B5AD",
"M 	c #865D3E",
"N 	c #C7895A",
"O 	c #D79562",
"P 	c #D69462",
"Q 	c #D18F5D",
"R 	c #A76F47",
"S 	c #7C5032",
"T 	c #91613E",
"U 	c #956541",
"V 	c #9A6843",
"W 	c #A77249",
"X 	c #C28456",
"Y 	c #D3915E",
"Z 	c #D38F5C",
"` 	c #BC8A67",
" .	c #CEBEB2",
"..	c #717185",
"+.	c #B7B7B7",
"@.	c #A6A5A5",
"#.	c #2D2118",
"$.	c #624028",
"%.	c #865A39",
"&.	c #7A5235",
"*.	c #6A452B",
"=.	c #432A1A",
"-.	c #65442C",
";.	c #BE8558",
">.	c #BE8457",
",.	c #B88156",
"'.	c #C28759",
").	c #D1905E",
"!.	c #CE8754",
"~.	c #8B6C58",
"{.	c #737387",
"].	c #B1B1B1",
"^.	c #B7B2AE",
"/.	c #3D2D22",
"(.	c #25170E",
"_.	c #1A100A",
":.	c #0A0604",
"<.	c #010000",
"[.	c #4A3423",
"}.	c #A2704A",
"|.	c #B47D52",
"1.	c #7B5234",
"2.	c #865B3A",
"3.	c #825939",
"4.	c #855A3A",
"5.	c #815637",
"6.	c #6D462B",
"7.	c #665448",
"8.	c #969696",
"9.	c #C5B8AE",
"0.	c #9A704F",
"a.	c #996843",
"b.	c #654129",
"c.	c #170F09",
"d.	c #513926",
"e.	c #A27049",
"f.	c #BB8054",
"g.	c #8F6341",
"h.	c #7E5739",
"i.	c #6C4B31",
"j.	c #5D3F28",
"k.	c #433226",
"l.	c #85807D",
"m.	c #BFBFBF",
"n.	c #76768C",
"o.	c #757575",
"p.	c #B2A49A",
"q.	c #B98861",
"r.	c #D89764",
"s.	c #C58758",
"t.	c #7F5233",
"u.	c #1D130C",
"v.	c #926745",
"w.	c #7D5639",
"x.	c #6A462D",
"y.	c #8E5D3B",
"z.	c #885A39",
"A.	c #7A5133",
"B.	c #6B462C",
"C.	c #3F3128",
"D.	c #797992",
"E.	c #606060",
"F.	c #9E9591",
"G.	c #A27C61",
"H.	c #D09264",
"I.	c #D4925F",
"J.	c #C68050",
"K.	c #422A19",
"L.	c #754E32",
"M.	c #865A3A",
"N.	c #8C603E",
"O.	c #442E1D",
"P.	c #22160D",
"Q.	c #2F241C",
"R.	c #524943",
"S.	c #8A8785",
"T.	c #535365",
"U.	c #2D2D2F",
"V.	c #676666",
"W.	c #C1BBB8",
"X.	c #CAB5A5",
"Y.	c #B89983",
"Z.	c #807268",
"`.	c #6A6561",
" +	c #6C645E",
".+	c #443327",
"++	c #573924",
"@+	c #643F26",
"#+	c #7E6F63",
"$+	c #CBCBCB",
"%+	c #0E0E10",
"&+	c #555557",
"*+	c #F3F3F3",
"=+	c #E0DFDF",
"-+	c #B0AEAC",
";+	c #A4A09F",
">+	c #D7D5D5",
",+	c #FDFDFD",
"                                                ",
"                                                ",
"                                                ",
"                                                ",
"                                                ",
"                                                ",
"            . + @ # $ % & * = - ; ; > , ' ) ! ~ ",
"{ ] ^ / ( _ : < [ [ [ } | 1 2 3 4 5 6 7 8 9 0 5 ",
"a b c d e [ [ [ f [ [ [ [ g h i j k l m n o p q ",
"r s t u [ [ [ [ v w x y z A B C D E F G H H I   ",
"J K L M N O P Q R S T U V W X Y Z `  .          ",
"..+.@.#.$.%.&.*.=.-.;.N >.,.'.).!.~.            ",
"{.].^./.(._.:.<.[.}.|.1.2.3.4.5.6.7.            ",
"{.8.9.0.a.b.c.<.d.e.f.g.h.i.j.k.l.m.            ",
"n.o.p.q.r.s.t.u.v.w.x.y.z.A.B.C.                ",
"D.E.F.G.H.I.J.K.L.M.N.O.P.Q.R.S.                ",
"T.U.V.W.  X.Y.Z.`. +.+++@+#+$+                  ",
"%+&+              *+=+-+;+>+,+                  ",
"                                                ",
"                                                ",
"                                                ",
"                                                ",
"                                                ",
"                                                "};
