/* XPM */
static char * epg_goto_xpm[] = {
"24 24 48 1",
" 	c None",
".	c #B26363",
"+	c #8F1D1D",
"@	c #8A1414",
"#	c #D2A4A4",
"$	c #BB7575",
"%	c #8B1616",
"&	c #870D0D",
"*	c #C08181",
"=	c #C58A8A",
"-	c #8C1616",
";	c #C38686",
">	c #BE7B7B",
",	c #8D1818",
"'	c #B87070",
")	c #E6CCCC",
"!	c #E8D0D0",
"~	c #D0A0A0",
"{	c #8D1919",
"]	c #880E0E",
"^	c #870E0E",
"/	c #B06060",
"(	c #EFDFDF",
"_	c #9D3A3A",
":	c #9A3535",
"<	c #ECD8D8",
"[	c #CE9D9D",
"}	c #870F0F",
"|	c #BC7878",
"1	c #BA7474",
"2	c #D3A6A6",
"3	c #F4E9E9",
"4	c #E5CBCB",
"5	c #8B1515",
"6	c #880F0F",
"7	c #E9D2D2",
"8	c #F1E2E2",
"9	c #F5EAEA",
"0	c #DEBCBC",
"a	c #8A1313",
"b	c #D7ADAD",
"c	c #EFDEDE",
"d	c #D5ABAB",
"e	c #EDDADA",
"f	c #D9B3B3",
"g	c #B16262",
"h	c #E0C1C1",
"i	c #DBB8B8",
"                        ",
"                        ",
"                        ",
"                        ",
"                        ",
"    .              +    ",
"    @#            $@    ",
"    %&*          =&%    ",
"    -&&;        >&&-    ",
"    ,&&&'  )!  ~&&&,    ",
"    {&&]^/(_:<[^]&&{    ",
"    ,&&&&{ }} |&&&&,    ",
"    -&&&&! 1234&&&&-    ",
"    5&&67  89  0%&&5    ",
"    a&6b        c&&a    ",
"    6&d          e&6    ",
"    %f            g&    ",
"    h              i    ",
"                        ",
"                        ",
"                        ",
"                        ",
"                        ",
"                        "};
