/* XPM */
static char * epg_state_xpm[] = {
"24 24 124 2",
"  	c None",
". 	c #D7D7D7",
"+ 	c #B7B7B7",
"@ 	c #BBBBBB",
"# 	c #F2F2F2",
"$ 	c #6E6E6E",
"% 	c #2C2C2C",
"& 	c #000000",
"* 	c #CFCFCF",
"= 	c #656565",
"- 	c #070707",
"; 	c #010101",
"> 	c #525252",
", 	c #A8A8A8",
"' 	c #ECECEC",
") 	c #545454",
"! 	c #353535",
"~ 	c #8F8F8F",
"{ 	c #D9D9D9",
"] 	c #C0C0C0",
"^ 	c #1D1D1D",
"/ 	c #373737",
"( 	c #CBCBCB",
"_ 	c #E2E2E2",
": 	c #E8E8E8",
"< 	c #D5D5D5",
"[ 	c #555555",
"} 	c #252525",
"| 	c #989898",
"1 	c #B0B0B0",
"2 	c #D3D3D3",
"3 	c #F8F8F8",
"4 	c #444444",
"5 	c #FEFEFE",
"6 	c #F0F0F0",
"7 	c #7C7C7C",
"8 	c #101010",
"9 	c #131313",
"0 	c #7B7B7B",
"a 	c #7A7A7A",
"b 	c #FDFDFD",
"c 	c #E3E3E3",
"d 	c #333333",
"e 	c #636363",
"f 	c #EFEFEF",
"g 	c #959595",
"h 	c #F3F3F3",
"i 	c #F7F7F7",
"j 	c #3C3C3C",
"k 	c #303030",
"l 	c #BCBCBC",
"m 	c #9F9F9F",
"n 	c #404040",
"o 	c #818181",
"p 	c #FAFAFA",
"q 	c #AFAFAF",
"r 	c #949494",
"s 	c #F6F6F6",
"t 	c #F4F4F4",
"u 	c #868686",
"v 	c #BDBDBD",
"w 	c #FCFCFC",
"x 	c #808080",
"y 	c #8D8D8D",
"z 	c #C7C7C7",
"A 	c #121212",
"B 	c #939393",
"C 	c #EBEBEB",
"D 	c #797979",
"E 	c #030303",
"F 	c #171717",
"G 	c #E4E4E4",
"H 	c #393939",
"I 	c #4A4A4A",
"J 	c #C5C5C5",
"K 	c #2D2D2D",
"L 	c #B2B2B2",
"M 	c #494949",
"N 	c #9B9B9B",
"O 	c #999999",
"P 	c #3A3A3A",
"Q 	c #B9B9B9",
"R 	c #222222",
"S 	c #565656",
"T 	c #B8B8B8",
"U 	c #0B0B0B",
"V 	c #C4C4C4",
"W 	c #CECECE",
"X 	c #FBFBFB",
"Y 	c #E6E6E6",
"Z 	c #BABABA",
"` 	c #050505",
" .	c #0D0D0D",
"..	c #3D3D3D",
"+.	c #E1E1E1",
"@.	c #6F6F6F",
"#.	c #A4A4A4",
"$.	c #474747",
"%.	c #919191",
"&.	c #464646",
"*.	c #4C4C4C",
"=.	c #767676",
"-.	c #888888",
";.	c #7E7E7E",
">.	c #181818",
",.	c #5E5E5E",
"'.	c #0A0A0A",
").	c #090909",
"!.	c #2F2F2F",
"~.	c #616161",
"{.	c #A5A5A5",
"].	c #1B1B1B",
"^.	c #505050",
"/.	c #8E8E8E",
"(.	c #EDEDED",
"_.	c #8B8B8B",
":.	c #B1B1B1",
"<.	c #DCDCDC",
"[.	c #848484",
"}.	c #979797",
"|.	c #C1C1C1",
"1.	c #EEEEEE",
"2.	c #C8C8C8",
"3.	c #DADADA",
"                                                ",
"                                                ",
"                                                ",
"                                                ",
"                                                ",
"        . + + + .           @ + + + #           ",
"      $ % & & & % $     * = - ; ; ; > ,         ",
"  ' ) ! ~ { ' { ~ ! ) ] ^ / ( _ : < [ } |       ",
"  1 ; 2 3       3 2 & & 4 : 5 5 5 5 6 7 8       ",
"  9 0 3 5         3 a & < b 5 5 5 5 5 c d e f   ",
"  ; g b 5         b g & h 5 5 5 5 5 5 i j k l   ",
"  & m 5 5           m &   5 5 5 5 5 5 5 n k o   ",
"  ; m p q r s       m &   t u v w 5 5 5 n k x   ",
"  & y z A - B     b y & C D E F G 5 5 # H k x   ",
"  > I J K 9 L     C M & N O - P C 5 w Q R S x   ",
"  T U T V W X X Y Z `  ...V V +.b X 2 @.A x x   ",
"    #.- $.o %.o &.E > x *.; =.-.y ;.>.>.$ x l   ",
"      V ,.'.).).!.~.x {.' ] ].'.'.'.^.$ x /.(.  ",
"          r x x x _.:.      <.r x x x [.}.      ",
"          # |.|.|.1.            2.|.|.3.        ",
"                                                ",
"                                                ",
"                                                ",
"                                                "};
