/* XPM */
static char * home_xpm[] = {
"24 24 94 2",
"  	c None",
". 	c #892322",
"+ 	c #8A2524",
"@ 	c #983A39",
"# 	c #8B2625",
"$ 	c #872120",
"% 	c #8A2322",
"& 	c #C97D7D",
"* 	c #DFA0A0",
"= 	c #A74B4B",
"- 	c #8C2625",
"; 	c #DC9C9C",
"> 	c #DE9E9E",
", 	c #892423",
"' 	c #8A2423",
") 	c #C16F6F",
"! 	c #DC9797",
"~ 	c #D48080",
"{ 	c #DD9C9C",
"] 	c #AA4F4F",
"^ 	c #DFA1A1",
"/ 	c #B65F5F",
"( 	c #DD9A9A",
"_ 	c #D07676",
": 	c #CF7272",
"< 	c #D37E7E",
"[ 	c #DE9D9D",
"} 	c #B66666",
"| 	c #DE9F9F",
"1 	c #AA5252",
"2 	c #DD9D9D",
"3 	c #D17979",
"4 	c #D27A7A",
"5 	c #D78888",
"6 	c #D37D7D",
"7 	c #8A2625",
"8 	c #9F4342",
"9 	c #DB9999",
"0 	c #CF7A7A",
"a 	c #CB6D6D",
"b 	c #CC6F6F",
"c 	c #DC9B9B",
"d 	c #973534",
"e 	c #D59292",
"f 	c #CE7979",
"g 	c #C76767",
"h 	c #D69090",
"i 	c #BA6666",
"j 	c #8E2A29",
"k 	c #D08989",
"l 	c #CC7B7B",
"m 	c #C36262",
"n 	c #C56868",
"o 	c #D48F8F",
"p 	c #B96565",
"q 	c #C98181",
"r 	c #D49090",
"s 	c #BF5C5C",
"t 	c #C16262",
"u 	c #D49292",
"v 	c #B66161",
"w 	c #8C2B2A",
"x 	c #D08888",
"y 	c #BD5858",
"z 	c #BC5757",
"A 	c #BD5959",
"B 	c #D08A8A",
"C 	c #CB8181",
"D 	c #B95454",
"E 	c #B85151",
"F 	c #CC8181",
"G 	c #C77878",
"H 	c #B54F4F",
"I 	c #B44C4C",
"J 	c #B14949",
"K 	c #B04646",
"L 	c #C37272",
"M 	c #882221",
"N 	c #BC6666",
"O 	c #AD4343",
"P 	c #AC4141",
"Q 	c #BD6868",
"R 	c #B65B5B",
"S 	c #A93D3D",
"T 	c #A83B3B",
"U 	c #B85E5E",
"V 	c #892221",
"W 	c #B35454",
"X 	c #A73A3A",
"Y 	c #A63838",
"Z 	c #B45656",
"` 	c #B15050",
" .	c #B15151",
"..	c #882322",
"                                                ",
"                                                ",
"                      .                         ",
"                    + @ #   $ $ $ $             ",
"                  % & * = - $ ; > ,             ",
"                ' ) ! ~ { ] $ ^ ^ ,             ",
"              ' / ( _ : < [ } > | ,             ",
"            # 1 2 3 : : : 4 5 6 > ,             ",
"          7 8 9 0 a a a a a a b c $             ",
"          d e f g g g g g g g g h i '           ",
"        j k l m m m m m m m m m n o p %         ",
"      ' q r s s s s s s s s s s s t u v '       ",
"    $ $ w x y z z z z z z z z z z A B 7 $ $     ",
"        $ C D E E E E E E E E E E D F $         ",
"        $ G H I I I I I I I I I I H G $         ",
"        $ ) J K K K K K K K K K K K L M         ",
"        $ N O P P P P P P P P P P P Q M         ",
"        $ R S T T T T T T T T T T T U V         ",
"        $ W X Y Y Y Y Y Y Y Y Y Y Y Z M         ",
"        $ ` ` ` ` `  . . . . . . . . ...        ",
"        $ $ $ $ $ $ $ $ $ $ $ $ $ $ $ $         ",
"                                                ",
"                                                ",
"                                                "};
