/* XPM */
static char * hiddenproof_xpm[] = {
"16 16 84 1",
" 	c None",
".	c #F7DFFF",
"+	c #F4D3FF",
"@	c #F1C7FF",
"#	c #EEBAFF",
"$	c #EBAEFF",
"%	c #E8A0FF",
"&	c #E594FF",
"*	c #E287FF",
"=	c #DF7CFF",
"-	c #DC70FF",
";	c #AE22FE",
">	c #F3CFFF",
",	c #29202B",
"'	c #281E2B",
")	c #281D2B",
"!	c #271B2B",
"~	c #27182B",
"{	c #26152B",
"]	c #26142B",
"^	c #DB6CFF",
"/	c #D85FFF",
"(	c #8200DC",
"_	c #000000",
":	c #EFBFFF",
"<	c #ECB3FF",
"[	c #E9A7FF",
"}	c #E69BFF",
"|	c #E38FFF",
"1	c #E082FF",
"2	c #DD76FF",
"3	c #DA68FF",
"4	c #D75DFF",
"5	c #D44FFF",
"6	c #7200BF",
"7	c #ECB0FF",
"8	c #281B2B",
"9	c #27192B",
"0	c #26162B",
"a	c #25122B",
"b	c #25102B",
"c	c #D759FF",
"d	c #D44DFF",
"e	c #D140FF",
"f	c #7000BE",
"g	c #DC6FFF",
"h	c #D962FF",
"i	c #D657FF",
"j	c #D349FF",
"k	c #D03EFF",
"l	c #CD30FF",
"m	c #6C00B6",
"n	c #E492FF",
"o	c #25112B",
"p	c #D552FF",
"q	c #D247FF",
"r	c #CF3AFF",
"s	c #CC2EFF",
"t	c #C921FF",
"u	c #6100A3",
"v	c #D144FF",
"w	c #CE37FF",
"x	c #CB2AFF",
"y	c #C81FFF",
"z	c #C511FF",
"A	c #DD72FF",
"B	c #250F2B",
"C	c #240C2B",
"D	c #240A2B",
"E	c #23072B",
"F	c #CB27FF",
"G	c #C71AFF",
"H	c #C50FFF",
"I	c #C202FF",
"J	c #DB69FF",
"K	c #CA25FF",
"L	c #C717FF",
"M	c #C40CFF",
"N	c #C100FF",
"O	c #6200A6",
"P	c #B42BFE",
"Q	c #7D00D0",
"R	c #6700AE",
"S	c #590096",
"                ",
"                ",
"                ",
"  .+@#$%&*=-;   ",
"  >,')!~{]^/(_  ",
"  :<[}|123456_  ",
"  7890{abcdef_  ",
"  %&*=ghijklm_  ",
"  n{]o/pqrstu_  ",
"  12345vwxyzu_  ",
"  AbBCDEFGHIu_  ",
"  JijklKLMNNO_  ",
"  P(QfffRuuuS_  ",
"   ___________  ",
"                ",
"                "};
